<svg width="129" height="60" viewBox="0 0 129 60" fill="none" xmlns="http://www.w3.org/2000/svg">
<path d="M66.7639 40.3221C51.5548 40.3221 36.3456 40.3221 21.1287 40.3299C20.7403 40.3299 20.6082 40.2522 20.6548 39.8561C20.6937 39.4832 20.5305 38.9783 20.717 38.7686C20.9345 38.5278 21.4471 38.6909 21.8278 38.6909C52.013 38.6909 82.2061 38.6909 112.391 38.6909C112.935 38.6909 112.943 38.6909 112.935 39.2347C112.935 39.5842 113.059 40.0503 112.881 40.2445C112.679 40.4697 112.205 40.3144 111.848 40.3144C96.8249 40.3221 81.7944 40.3221 66.7639 40.3221Z" fill="black"/>
<path d="M66.7639 40.3221C51.5548 40.3221 36.3456 40.3221 21.1287 40.3299C20.7403 40.3299 20.6082 40.2522 20.6548 39.8561C20.6937 39.4832 20.5305 38.9783 20.717 38.7686C20.9345 38.5278 21.4471 38.6909 21.8278 38.6909C52.013 38.6909 82.2061 38.6909 112.391 38.6909C112.935 38.6909 112.943 38.6909 112.935 39.2347C112.935 39.5842 113.059 40.0503 112.881 40.2445C112.679 40.4697 112.205 40.3144 111.848 40.3144C96.8249 40.3221 81.7944 40.3221 66.7639 40.3221Z" fill="black"/>
<path d="M2.95227 55.8188C2.95227 56.8441 2.9678 57.8617 2.9445 58.887C2.93673 59.1433 3.06101 59.2133 3.23967 59.2676C3.48047 59.3375 3.72904 59.3841 3.9776 59.423C4.06305 59.4385 4.12519 59.4463 4.11742 59.555C4.11742 59.6793 4.03198 59.6638 3.9543 59.6638C2.68817 59.6638 1.41426 59.6638 0.148126 59.6638C0.0704491 59.6638 -0.00722979 59.6638 0.000537915 59.5473C0.000537915 59.4385 0.0704473 59.4307 0.155892 59.4307C0.233569 59.4307 0.311248 59.423 0.381157 59.3997C1.1657 59.1666 1.16569 59.1666 1.16569 58.3355C1.16569 54.4283 1.15793 50.5212 1.18123 46.614C1.18123 46.1713 1.01811 46.0315 0.637491 45.9926C0.474369 45.9771 0.311246 45.946 0.155892 45.9149C0.0626795 45.8916 0.000537915 45.8295 0.000537915 45.7207C0.000537915 45.5654 0.117053 45.612 0.194731 45.612C1.43756 45.612 2.6804 45.612 3.92323 45.612C4.00091 45.612 4.11742 45.5654 4.11742 45.7207C4.11742 45.8295 4.06305 45.8916 3.96207 45.9149C3.72127 45.9693 3.4727 46.0315 3.2319 46.0703C3.02217 46.1091 2.9445 46.2101 2.95227 46.4276C2.96003 48.2142 2.96003 50.0008 2.95227 51.7873C2.95227 52.0126 3.02217 52.0592 3.2319 52.0592C4.39706 52.0514 5.56221 52.0514 6.72737 52.0592C6.95263 52.0592 6.99924 51.9893 6.99924 51.7796C6.99147 49.993 6.99147 48.2064 6.99924 46.4198C6.99924 46.2179 6.99147 46.0781 6.7196 46.0625C6.48657 46.0548 6.25354 45.9615 6.02051 45.9149C5.90399 45.8916 5.82632 45.8373 5.82632 45.713C5.82632 45.5343 5.9739 45.6042 6.05935 45.6042C7.27888 45.5965 8.49064 45.5965 9.71017 45.6042C9.79561 45.6042 9.93543 45.5343 9.9432 45.713C9.9432 45.8373 9.87329 45.8839 9.75677 45.9149C9.4383 45.9926 9.01107 45.9849 8.84018 46.1868C8.64599 46.4276 8.77804 46.8548 8.77804 47.2044C8.77804 51.0572 8.77804 54.9177 8.77028 58.7705C8.77028 59.0967 8.83242 59.2599 9.18196 59.2832C9.40723 59.2987 9.61696 59.3841 9.84222 59.4307C9.92766 59.4463 9.9432 59.4851 9.9432 59.555C9.9432 59.6405 9.89659 59.6638 9.81891 59.6638C9.62472 59.6638 9.43053 59.6638 9.23634 59.6638C8.1877 59.6638 7.13906 59.6638 6.09042 59.656C5.9972 59.656 5.83408 59.7415 5.82632 59.5473C5.81855 59.3686 5.96613 59.4541 6.05158 59.4307C6.36229 59.3375 6.77397 59.3298 6.94486 59.1278C7.10022 58.9414 6.99147 58.5375 6.99147 58.2268C6.99147 56.4169 6.9837 54.5992 6.99924 52.7894C6.99924 52.4864 6.91379 52.432 6.63416 52.4398C5.50784 52.4553 4.38152 52.4553 3.25521 52.4398C2.99111 52.4398 2.93673 52.5175 2.9445 52.7583C2.96003 53.7759 2.95227 54.8012 2.95227 55.8188Z" fill="black"/>
<path d="M2.95227 55.8188C2.95227 56.8441 2.9678 57.8617 2.9445 58.887C2.93673 59.1433 3.06101 59.2133 3.23967 59.2676C3.48047 59.3375 3.72904 59.3841 3.9776 59.423C4.06305 59.4385 4.12519 59.4463 4.11742 59.555C4.11742 59.6793 4.03198 59.6638 3.9543 59.6638C2.68817 59.6638 1.41426 59.6638 0.148126 59.6638C0.0704491 59.6638 -0.00722979 59.6638 0.000537915 59.5473C0.000537915 59.4385 0.0704473 59.4307 0.155892 59.4307C0.233569 59.4307 0.311248 59.423 0.381157 59.3997C1.1657 59.1666 1.16569 59.1666 1.16569 58.3355C1.16569 54.4283 1.15793 50.5212 1.18123 46.614C1.18123 46.1713 1.01811 46.0315 0.637491 45.9926C0.474369 45.9771 0.311246 45.946 0.155892 45.9149C0.0626795 45.8916 0.000537915 45.8295 0.000537915 45.7207C0.000537915 45.5654 0.117053 45.612 0.194731 45.612C1.43756 45.612 2.6804 45.612 3.92323 45.612C4.00091 45.612 4.11742 45.5654 4.11742 45.7207C4.11742 45.8295 4.06305 45.8916 3.96207 45.9149C3.72127 45.9693 3.4727 46.0315 3.2319 46.0703C3.02217 46.1091 2.9445 46.2101 2.95227 46.4276C2.96003 48.2142 2.96003 50.0008 2.95227 51.7873C2.95227 52.0126 3.02217 52.0592 3.2319 52.0592C4.39706 52.0514 5.56221 52.0514 6.72737 52.0592C6.95263 52.0592 6.99924 51.9893 6.99924 51.7796C6.99147 49.993 6.99147 48.2064 6.99924 46.4198C6.99924 46.2179 6.99147 46.0781 6.7196 46.0625C6.48657 46.0548 6.25354 45.9615 6.02051 45.9149C5.90399 45.8916 5.82632 45.8373 5.82632 45.713C5.82632 45.5343 5.9739 45.6042 6.05935 45.6042C7.27888 45.5965 8.49064 45.5965 9.71017 45.6042C9.79561 45.6042 9.93543 45.5343 9.9432 45.713C9.9432 45.8373 9.87329 45.8839 9.75677 45.9149C9.4383 45.9926 9.01107 45.9849 8.84018 46.1868C8.64599 46.4276 8.77804 46.8548 8.77804 47.2044C8.77804 51.0572 8.77804 54.9177 8.77028 58.7705C8.77028 59.0967 8.83242 59.2599 9.18196 59.2832C9.40723 59.2987 9.61696 59.3841 9.84222 59.4307C9.92766 59.4463 9.9432 59.4851 9.9432 59.555C9.9432 59.6405 9.89659 59.6638 9.81891 59.6638C9.62472 59.6638 9.43053 59.6638 9.23634 59.6638C8.1877 59.6638 7.13906 59.6638 6.09042 59.656C5.9972 59.656 5.83408 59.7415 5.82632 59.5473C5.81855 59.3686 5.96613 59.4541 6.05158 59.4307C6.36229 59.3375 6.77397 59.3298 6.94486 59.1278C7.10022 58.9414 6.99147 58.5375 6.99147 58.2268C6.99147 56.4169 6.9837 54.5992 6.99924 52.7894C6.99924 52.4864 6.91379 52.432 6.63416 52.4398C5.50784 52.4553 4.38152 52.4553 3.25521 52.4398C2.99111 52.4398 2.93673 52.5175 2.9445 52.7583C2.96003 53.7759 2.95227 54.8012 2.95227 55.8188Z" fill="black"/>
<path d="M61.5207 59.6638C60.2546 59.6638 58.9807 59.6638 57.7145 59.656C57.6136 59.656 57.4271 59.7648 57.4116 59.5473C57.3961 59.3453 57.5747 59.4463 57.6679 59.4152C57.9631 59.322 58.3748 59.322 58.5224 59.12C58.67 58.9181 58.569 58.5219 58.569 58.2112C58.569 54.3274 58.569 50.4435 58.5767 46.5597C58.5767 46.2567 58.5534 46.0392 58.1728 46.047C58.0097 46.047 57.8388 45.9305 57.6679 45.9072C57.5203 45.8839 57.3961 45.8606 57.4116 45.6974C57.4271 45.511 57.5903 45.5965 57.6835 45.5965C59.8584 45.5887 62.0334 45.5887 64.2083 45.5887C64.5579 45.5887 64.9074 45.5965 65.257 45.5887C65.4589 45.5809 65.5055 45.6198 65.4978 45.8606C65.4589 46.8005 65.3657 47.7403 65.5521 48.6725C65.5677 48.7346 65.591 48.8434 65.4745 48.8511C65.3968 48.8511 65.3269 48.8744 65.2414 48.7812C64.5656 48.0433 64.185 47.1733 64.0918 46.179C64.0763 46.0004 64.0141 45.9693 63.8588 45.9771C62.7713 45.9848 61.6838 45.9848 60.5964 45.9771C60.3789 45.9771 60.3478 46.0548 60.3478 46.2412C60.3556 48.0821 60.3556 49.9153 60.3478 51.7563C60.3478 52.0126 60.4332 52.067 60.6585 52.0437C60.7983 52.0281 60.9459 52.0437 61.0857 52.0437C61.4586 52.0359 61.9091 52.1524 62.181 51.9815C62.4451 51.8184 62.5227 51.3679 62.6859 51.0416C62.8179 50.7853 62.95 50.529 63.0898 50.2804C63.1131 50.2338 63.1675 50.1639 63.2451 50.1872C63.3306 50.2105 63.2995 50.2882 63.2995 50.3503C63.2995 51.6087 63.2995 52.8593 63.2995 54.1176C63.2995 54.1875 63.3306 54.273 63.2141 54.2963C63.082 54.3196 63.0742 54.2186 63.0354 54.1409C62.8179 53.7059 62.5693 53.2787 62.3829 52.836C62.2509 52.533 62.0878 52.401 61.7537 52.4243C61.3654 52.4553 60.977 52.4398 60.5886 52.4243C60.4022 52.4165 60.3478 52.4786 60.3478 52.6651C60.3556 54.7857 60.3556 56.914 60.3478 59.0346C60.3478 59.221 60.4022 59.2754 60.5886 59.2754C61.7537 59.2676 62.9189 59.2599 64.0841 59.2754C64.3248 59.2754 64.3093 59.1666 64.3171 58.9958C64.3715 58.0714 64.7598 57.2869 65.3813 56.6111C65.4512 56.5334 65.5133 56.4402 65.6376 56.479C65.7774 56.5256 65.723 56.6577 65.7075 56.7431C65.5988 57.4189 65.6454 58.1025 65.6376 58.786C65.6376 58.8637 65.6298 58.9414 65.6376 59.0191C65.692 59.6638 65.692 59.6638 65.055 59.6638C63.8821 59.6638 62.7014 59.6638 61.5207 59.6638Z" fill="black"/>
<path d="M61.5207 59.6638C60.2546 59.6638 58.9807 59.6638 57.7145 59.656C57.6136 59.656 57.4271 59.7648 57.4116 59.5473C57.3961 59.3453 57.5747 59.4463 57.6679 59.4152C57.9631 59.322 58.3748 59.322 58.5224 59.12C58.67 58.9181 58.569 58.5219 58.569 58.2112C58.569 54.3274 58.569 50.4435 58.5767 46.5597C58.5767 46.2567 58.5534 46.0392 58.1728 46.047C58.0097 46.047 57.8388 45.9305 57.6679 45.9072C57.5203 45.8839 57.3961 45.8606 57.4116 45.6974C57.4271 45.511 57.5903 45.5965 57.6835 45.5965C59.8584 45.5887 62.0334 45.5887 64.2083 45.5887C64.5579 45.5887 64.9074 45.5965 65.257 45.5887C65.4589 45.5809 65.5055 45.6198 65.4978 45.8606C65.4589 46.8005 65.3657 47.7403 65.5521 48.6725C65.5677 48.7346 65.591 48.8434 65.4745 48.8511C65.3968 48.8511 65.3269 48.8744 65.2414 48.7812C64.5656 48.0433 64.185 47.1733 64.0918 46.179C64.0763 46.0004 64.0141 45.9693 63.8588 45.9771C62.7713 45.9848 61.6838 45.9848 60.5964 45.9771C60.3789 45.9771 60.3478 46.0548 60.3478 46.2412C60.3556 48.0821 60.3556 49.9153 60.3478 51.7563C60.3478 52.0126 60.4332 52.067 60.6585 52.0437C60.7983 52.0281 60.9459 52.0437 61.0857 52.0437C61.4586 52.0359 61.9091 52.1524 62.181 51.9815C62.4451 51.8184 62.5227 51.3679 62.6859 51.0416C62.8179 50.7853 62.95 50.529 63.0898 50.2804C63.1131 50.2338 63.1675 50.1639 63.2451 50.1872C63.3306 50.2105 63.2995 50.2882 63.2995 50.3503C63.2995 51.6087 63.2995 52.8593 63.2995 54.1176C63.2995 54.1875 63.3306 54.273 63.2141 54.2963C63.082 54.3196 63.0742 54.2186 63.0354 54.1409C62.8179 53.7059 62.5693 53.2787 62.3829 52.836C62.2509 52.533 62.0878 52.401 61.7537 52.4243C61.3654 52.4553 60.977 52.4398 60.5886 52.4243C60.4022 52.4165 60.3478 52.4786 60.3478 52.6651C60.3556 54.7857 60.3556 56.914 60.3478 59.0346C60.3478 59.221 60.4022 59.2754 60.5886 59.2754C61.7537 59.2676 62.9189 59.2599 64.0841 59.2754C64.3248 59.2754 64.3093 59.1666 64.3171 58.9958C64.3715 58.0714 64.7598 57.2869 65.3813 56.6111C65.4512 56.5334 65.5133 56.4402 65.6376 56.479C65.7774 56.5256 65.723 56.6577 65.7075 56.7431C65.5988 57.4189 65.6454 58.1025 65.6376 58.786C65.6376 58.8637 65.6298 58.9414 65.6376 59.0191C65.692 59.6638 65.692 59.6638 65.055 59.6638C63.8821 59.6638 62.7014 59.6638 61.5207 59.6638Z" fill="black"/>
<path d="M15.9166 59.6637C14.6116 59.6637 13.2989 59.6637 11.9939 59.656C11.9084 59.656 11.7531 59.7336 11.7453 59.5783C11.7376 59.4618 11.8618 59.4462 11.9706 59.4229C12.2968 59.353 12.7396 59.353 12.9105 59.1433C13.0736 58.9336 12.9726 58.4986 12.9726 58.1646C12.9726 54.2807 12.9726 50.3969 12.9804 46.513C12.9804 46.2178 12.9182 46.0703 12.592 46.0547C12.3823 46.047 12.1725 45.9693 11.9784 45.8994C11.8851 45.8683 11.7298 45.8761 11.7376 45.7129C11.7453 45.511 11.9084 45.6042 12.0017 45.6042C13.1124 45.5964 14.231 45.5964 15.3418 45.5964C16.7555 45.5964 18.1614 45.6042 19.5752 45.5887C19.8237 45.5887 19.9092 45.643 19.8936 45.8994C19.8703 46.3577 19.7694 46.816 19.8082 47.282C19.847 47.717 19.8703 48.152 19.8859 48.587C19.8859 48.6724 19.9558 48.8045 19.816 48.8511C19.6994 48.8977 19.6295 48.7967 19.5596 48.719C18.9693 48.0277 18.5576 47.2432 18.4955 46.3266C18.4799 46.047 18.3945 45.977 18.1304 45.977C17.105 45.9848 16.0875 45.9926 15.0621 45.977C14.7825 45.977 14.6737 46.047 14.6737 46.3421C14.6893 48.1442 14.6815 49.9386 14.6737 51.7407C14.6737 51.9659 14.7126 52.0592 14.9612 52.0436C15.4272 52.0203 15.8933 52.0281 16.3593 52.0436C16.5458 52.0514 16.6234 51.9737 16.6933 51.8261C16.9186 51.3678 17.1594 50.9095 17.3847 50.4512C17.439 50.3425 17.4934 50.2027 17.6022 50.2182C17.742 50.2337 17.7109 50.3969 17.7109 50.5056C17.7109 51.6863 17.7109 52.8592 17.7109 54.0399C17.7109 54.1254 17.7886 54.2652 17.6255 54.2885C17.4857 54.3118 17.439 54.203 17.3847 54.0943C17.1594 53.6205 16.9108 53.1544 16.6856 52.6806C16.6001 52.4941 16.4914 52.4087 16.2817 52.4242C15.8544 52.4398 15.4272 52.4398 15 52.4242C14.767 52.4165 14.6815 52.5019 14.6815 52.7427C14.6893 54.8167 14.6893 56.8829 14.6815 58.9569C14.6815 59.2365 14.8136 59.2754 15.0388 59.2676C16.1263 59.2598 17.2138 59.2443 18.3013 59.2754C18.6197 59.2831 18.713 59.1355 18.7207 58.8947C18.7518 58.0092 19.2179 57.3101 19.6994 56.6188C19.7927 56.4867 19.9169 56.4091 20.0645 56.479C20.1888 56.5411 20.1344 56.6887 20.1189 56.7897C19.9869 57.6752 20.0102 58.553 20.1111 59.4385C20.15 59.7414 19.9713 59.6482 19.847 59.6482C18.5265 59.6637 17.2216 59.6637 15.9166 59.6637Z" fill="black"/>
<path d="M15.9166 59.6637C14.6116 59.6637 13.2989 59.6637 11.9939 59.656C11.9084 59.656 11.7531 59.7336 11.7453 59.5783C11.7376 59.4618 11.8618 59.4462 11.9706 59.4229C12.2968 59.353 12.7396 59.353 12.9105 59.1433C13.0736 58.9336 12.9726 58.4986 12.9726 58.1646C12.9726 54.2807 12.9726 50.3969 12.9804 46.513C12.9804 46.2178 12.9182 46.0703 12.592 46.0547C12.3823 46.047 12.1725 45.9693 11.9784 45.8994C11.8851 45.8683 11.7298 45.8761 11.7376 45.7129C11.7453 45.511 11.9084 45.6042 12.0017 45.6042C13.1124 45.5964 14.231 45.5964 15.3418 45.5964C16.7555 45.5964 18.1614 45.6042 19.5752 45.5887C19.8237 45.5887 19.9092 45.643 19.8936 45.8994C19.8703 46.3577 19.7694 46.816 19.8082 47.282C19.847 47.717 19.8703 48.152 19.8859 48.587C19.8859 48.6724 19.9558 48.8045 19.816 48.8511C19.6994 48.8977 19.6295 48.7967 19.5596 48.719C18.9693 48.0277 18.5576 47.2432 18.4955 46.3266C18.4799 46.047 18.3945 45.977 18.1304 45.977C17.105 45.9848 16.0875 45.9926 15.0621 45.977C14.7825 45.977 14.6737 46.047 14.6737 46.3421C14.6893 48.1442 14.6815 49.9386 14.6737 51.7407C14.6737 51.9659 14.7126 52.0592 14.9612 52.0436C15.4272 52.0203 15.8933 52.0281 16.3593 52.0436C16.5458 52.0514 16.6234 51.9737 16.6933 51.8261C16.9186 51.3678 17.1594 50.9095 17.3847 50.4512C17.439 50.3425 17.4934 50.2027 17.6022 50.2182C17.742 50.2337 17.7109 50.3969 17.7109 50.5056C17.7109 51.6863 17.7109 52.8592 17.7109 54.0399C17.7109 54.1254 17.7886 54.2652 17.6255 54.2885C17.4857 54.3118 17.439 54.203 17.3847 54.0943C17.1594 53.6205 16.9108 53.1544 16.6856 52.6806C16.6001 52.4941 16.4914 52.4087 16.2817 52.4242C15.8544 52.4398 15.4272 52.4398 15 52.4242C14.767 52.4165 14.6815 52.5019 14.6815 52.7427C14.6893 54.8167 14.6893 56.8829 14.6815 58.9569C14.6815 59.2365 14.8136 59.2754 15.0388 59.2676C16.1263 59.2598 17.2138 59.2443 18.3013 59.2754C18.6197 59.2831 18.713 59.1355 18.7207 58.8947C18.7518 58.0092 19.2179 57.3101 19.6994 56.6188C19.7927 56.4867 19.9169 56.4091 20.0645 56.479C20.1888 56.5411 20.1344 56.6887 20.1189 56.7897C19.9869 57.6752 20.0102 58.553 20.1111 59.4385C20.15 59.7414 19.9713 59.6482 19.847 59.6482C18.5265 59.6637 17.2216 59.6637 15.9166 59.6637Z" fill="black"/>
<path d="M126.226 50.1872C126.226 51.5077 126.226 52.8049 126.226 54.0944C126.226 54.172 126.28 54.2808 126.132 54.3041C126 54.3274 125.993 54.2186 125.962 54.141C125.729 53.6827 125.496 53.2244 125.278 52.7661C125.169 52.533 125.029 52.4088 124.75 52.4321C124.361 52.4554 123.973 52.4554 123.585 52.4321C123.305 52.4165 123.196 52.4942 123.196 52.7971C123.204 54.84 123.204 56.8907 123.196 58.9336C123.196 59.1822 123.266 59.2832 123.523 59.2754C124.672 59.2676 125.83 59.2599 126.979 59.2754C127.22 59.2754 127.235 59.1822 127.243 58.988C127.282 58.0559 127.678 57.2791 128.315 56.6033C128.385 56.5256 128.455 56.4324 128.572 56.4868C128.704 56.5412 128.641 56.6732 128.626 56.7587C128.494 57.4655 128.579 58.1724 128.556 58.8793C128.556 58.9414 128.556 59.0113 128.556 59.0735C128.548 59.2599 128.75 59.4851 128.603 59.6172C128.447 59.757 128.183 59.6638 127.966 59.6638C125.542 59.6716 123.126 59.6638 120.703 59.6638C120.61 59.6638 120.524 59.6638 120.431 59.6638C120.353 59.6638 120.314 59.625 120.322 59.5473C120.33 59.4929 120.33 59.4463 120.4 59.4385C120.423 59.4385 120.454 59.4385 120.478 59.4385C120.804 59.3531 121.278 59.3686 121.417 59.1667C121.588 58.9103 121.48 58.4676 121.48 58.1103C121.48 54.2497 121.48 50.3969 121.487 46.5364C121.487 46.249 121.441 46.0859 121.107 46.0703C120.897 46.0625 120.695 45.9693 120.485 45.9227C120.369 45.8917 120.307 45.8295 120.314 45.7052C120.33 45.5576 120.447 45.612 120.524 45.612C123.072 45.612 125.628 45.612 128.175 45.6043C128.385 45.6043 128.416 45.6509 128.401 45.8839C128.362 46.8238 128.261 47.7637 128.463 48.6958C128.478 48.7502 128.494 48.8434 128.408 48.8589C128.315 48.8745 128.206 48.8978 128.121 48.7968C127.507 48.0666 127.049 47.251 126.995 46.2723C126.979 46.0159 126.901 45.9849 126.684 45.9849C125.635 45.9926 124.587 45.9926 123.538 45.9849C123.274 45.9849 123.173 46.047 123.173 46.3344C123.181 48.121 123.181 49.9076 123.173 51.6941C123.173 51.9582 123.243 52.067 123.523 52.0592C123.965 52.0437 124.4 52.0437 124.843 52.0592C125.045 52.067 125.123 51.9893 125.2 51.8184C125.395 51.3834 125.612 50.964 125.83 50.5367C125.923 50.3969 125.977 50.226 126.226 50.1872Z" fill="black"/>
<path d="M126.226 50.1872C126.226 51.5077 126.226 52.8049 126.226 54.0944C126.226 54.172 126.28 54.2808 126.132 54.3041C126 54.3274 125.993 54.2186 125.962 54.141C125.729 53.6827 125.496 53.2244 125.278 52.7661C125.169 52.533 125.029 52.4088 124.75 52.4321C124.361 52.4554 123.973 52.4554 123.585 52.4321C123.305 52.4165 123.196 52.4942 123.196 52.7971C123.204 54.84 123.204 56.8907 123.196 58.9336C123.196 59.1822 123.266 59.2832 123.523 59.2754C124.672 59.2676 125.83 59.2599 126.979 59.2754C127.22 59.2754 127.235 59.1822 127.243 58.988C127.282 58.0559 127.678 57.2791 128.315 56.6033C128.385 56.5256 128.455 56.4324 128.572 56.4868C128.704 56.5412 128.641 56.6732 128.626 56.7587C128.494 57.4655 128.579 58.1724 128.556 58.8793C128.556 58.9414 128.556 59.0113 128.556 59.0735C128.548 59.2599 128.75 59.4851 128.603 59.6172C128.447 59.757 128.183 59.6638 127.966 59.6638C125.542 59.6716 123.126 59.6638 120.703 59.6638C120.61 59.6638 120.524 59.6638 120.431 59.6638C120.353 59.6638 120.314 59.625 120.322 59.5473C120.33 59.4929 120.33 59.4463 120.4 59.4385C120.423 59.4385 120.454 59.4385 120.478 59.4385C120.804 59.3531 121.278 59.3686 121.417 59.1667C121.588 58.9103 121.48 58.4676 121.48 58.1103C121.48 54.2497 121.48 50.3969 121.487 46.5364C121.487 46.249 121.441 46.0859 121.107 46.0703C120.897 46.0625 120.695 45.9693 120.485 45.9227C120.369 45.8917 120.307 45.8295 120.314 45.7052C120.33 45.5576 120.447 45.612 120.524 45.612C123.072 45.612 125.628 45.612 128.175 45.6043C128.385 45.6043 128.416 45.6509 128.401 45.8839C128.362 46.8238 128.261 47.7637 128.463 48.6958C128.478 48.7502 128.494 48.8434 128.408 48.8589C128.315 48.8745 128.206 48.8978 128.121 48.7968C127.507 48.0666 127.049 47.251 126.995 46.2723C126.979 46.0159 126.901 45.9849 126.684 45.9849C125.635 45.9926 124.587 45.9926 123.538 45.9849C123.274 45.9849 123.173 46.047 123.173 46.3344C123.181 48.121 123.181 49.9076 123.173 51.6941C123.173 51.9582 123.243 52.067 123.523 52.0592C123.965 52.0437 124.4 52.0437 124.843 52.0592C125.045 52.067 125.123 51.9893 125.2 51.8184C125.395 51.3834 125.612 50.964 125.83 50.5367C125.923 50.3969 125.977 50.226 126.226 50.1872Z" fill="black"/>
<path d="M71.5644 59.9667C70.4847 60.0211 69.6069 59.7803 68.8379 59.1744C68.6282 59.0112 68.5194 59.1899 68.4418 59.322C68.2398 59.6404 67.9679 59.8269 67.6028 59.8968C67.4087 59.9278 67.3543 59.8579 67.3387 59.6482C67.3154 59.221 67.4242 58.8093 67.432 58.3821C67.4475 57.7373 67.3543 57.1004 67.3543 56.4557C67.3543 56.3547 67.2533 56.1838 67.4708 56.1605C67.6728 56.1372 67.6883 56.2926 67.7271 56.4168C67.9524 57.0926 68.232 57.7451 68.6593 58.3277C69.1564 59.0035 69.8244 59.3608 70.64 59.5161C71.2071 59.6249 71.743 59.5783 72.2868 59.4307C72.9237 59.252 73.4131 58.8481 73.685 58.2889C74.1355 57.3723 74.2908 56.4013 73.7005 55.4692C73.3043 54.84 72.6985 54.405 72.0926 53.9933C71.2459 53.4185 70.2905 52.999 69.4982 52.3543C68.3563 51.4222 67.4786 50.3114 67.4941 48.7346C67.5096 47.1344 68.3952 45.946 69.9021 45.4566C71.0983 45.0682 72.2091 45.3401 73.2034 46.078C73.3976 46.2256 73.4597 46.2567 73.6384 46.047C73.8947 45.744 74.1355 45.3712 74.6326 45.4411C74.7724 45.4566 74.8113 45.5032 74.7957 45.6275C74.6482 46.7227 74.6482 47.8258 74.7957 48.921C74.8113 49.0453 74.7724 49.1385 74.6637 49.1696C74.5316 49.2084 74.4462 49.1463 74.4074 49.0064C74.2753 48.5093 74.0966 48.0277 73.8481 47.585C73.382 46.7616 72.8072 46.0703 71.8129 45.8295C70.4148 45.4877 69.1331 46.2955 68.8845 47.7325C68.6748 48.9521 69.2884 49.7211 70.1584 50.4357C71.1061 51.2125 72.2402 51.6941 73.2034 52.432C74.1899 53.1777 74.9822 54.0322 75.2851 55.2905C75.7667 57.2713 74.6715 59.4462 72.4965 59.9123C72.1547 59.9822 71.8052 59.9356 71.5644 59.9667Z" fill="black"/>
<path d="M71.5644 59.9667C70.4847 60.0211 69.6069 59.7803 68.8379 59.1744C68.6282 59.0112 68.5194 59.1899 68.4418 59.322C68.2398 59.6404 67.9679 59.8269 67.6028 59.8968C67.4087 59.9278 67.3543 59.8579 67.3387 59.6482C67.3154 59.221 67.4242 58.8093 67.432 58.3821C67.4475 57.7373 67.3543 57.1004 67.3543 56.4557C67.3543 56.3547 67.2533 56.1838 67.4708 56.1605C67.6728 56.1372 67.6883 56.2926 67.7271 56.4168C67.9524 57.0926 68.232 57.7451 68.6593 58.3277C69.1564 59.0035 69.8244 59.3608 70.64 59.5161C71.2071 59.6249 71.743 59.5783 72.2868 59.4307C72.9237 59.252 73.4131 58.8481 73.685 58.2889C74.1355 57.3723 74.2908 56.4013 73.7005 55.4692C73.3043 54.84 72.6985 54.405 72.0926 53.9933C71.2459 53.4185 70.2905 52.999 69.4982 52.3543C68.3563 51.4222 67.4786 50.3114 67.4941 48.7346C67.5096 47.1344 68.3952 45.946 69.9021 45.4566C71.0983 45.0682 72.2091 45.3401 73.2034 46.078C73.3976 46.2256 73.4597 46.2567 73.6384 46.047C73.8947 45.744 74.1355 45.3712 74.6326 45.4411C74.7724 45.4566 74.8113 45.5032 74.7957 45.6275C74.6482 46.7227 74.6482 47.8258 74.7957 48.921C74.8113 49.0453 74.7724 49.1385 74.6637 49.1696C74.5316 49.2084 74.4462 49.1463 74.4074 49.0064C74.2753 48.5093 74.0966 48.0277 73.8481 47.585C73.382 46.7616 72.8072 46.0703 71.8129 45.8295C70.4148 45.4877 69.1331 46.2955 68.8845 47.7325C68.6748 48.9521 69.2884 49.7211 70.1584 50.4357C71.1061 51.2125 72.2402 51.6941 73.2034 52.432C74.1899 53.1777 74.9822 54.0322 75.2851 55.2905C75.7667 57.2713 74.6715 59.4462 72.4965 59.9123C72.1547 59.9822 71.8052 59.9356 71.5644 59.9667Z" fill="black"/>
<path d="M88.863 51.4377C88.863 49.7832 88.8553 48.1209 88.8708 46.4664C88.8708 46.2178 88.8164 46.0936 88.5523 46.0625C88.296 46.0314 88.0397 45.9537 87.7911 45.8761C87.7212 45.8528 87.6124 45.845 87.6202 45.7052C87.6357 45.5498 87.7445 45.6042 87.8222 45.6042C89.065 45.6042 90.3078 45.6042 91.5507 45.5964C91.6672 45.5964 91.7837 45.6197 91.7992 45.7207C91.8225 45.8761 91.6516 45.8761 91.5584 45.8994C91.2322 45.9848 90.7817 45.946 90.6185 46.1945C90.4632 46.4276 90.5642 46.847 90.5642 47.181C90.5642 50.1871 90.5409 53.1855 90.5797 56.1916C90.5952 57.147 90.8127 58.0869 91.5429 58.817C92.3119 59.5861 93.2207 59.7414 94.2228 59.4618C95.4656 59.1278 96.0093 58.1879 96.2346 57.0227C96.3744 56.3081 96.3977 55.5779 96.3977 54.8478C96.3899 52.1524 96.3899 49.4647 96.3977 46.7693C96.3977 46.4664 96.3589 46.2644 96.0016 46.2023C95.7375 46.1557 95.4967 46.0003 95.2403 45.9071C95.1238 45.8683 95.0617 45.7984 95.0772 45.6819C95.1005 45.542 95.217 45.5964 95.2947 45.5964C96.1647 45.5887 97.0269 45.5887 97.8969 45.5964C97.9746 45.5964 98.0911 45.542 98.0988 45.6896C98.1066 45.8139 98.0367 45.8605 97.9279 45.9071C97.6794 45.9926 97.4541 46.1557 97.1978 46.1945C96.8249 46.2567 96.7706 46.4431 96.7706 46.7771C96.7861 49.9852 96.8016 53.201 96.7628 56.4091C96.755 57.4422 96.4365 58.4209 95.6598 59.1744C95.217 59.6016 94.6733 59.8579 94.0596 59.9201C92.444 60.091 90.8904 59.9822 89.733 58.6306C89.1737 57.9704 88.8708 57.1858 88.8553 56.3236C88.8475 54.7002 88.863 53.069 88.863 51.4377Z" fill="black"/>
<path d="M88.863 51.4377C88.863 49.7832 88.8553 48.1209 88.8708 46.4664C88.8708 46.2178 88.8164 46.0936 88.5523 46.0625C88.296 46.0314 88.0397 45.9537 87.7911 45.8761C87.7212 45.8528 87.6124 45.845 87.6202 45.7052C87.6357 45.5498 87.7445 45.6042 87.8222 45.6042C89.065 45.6042 90.3078 45.6042 91.5507 45.5964C91.6672 45.5964 91.7837 45.6197 91.7992 45.7207C91.8225 45.8761 91.6516 45.8761 91.5584 45.8994C91.2322 45.9848 90.7817 45.946 90.6185 46.1945C90.4632 46.4276 90.5642 46.847 90.5642 47.181C90.5642 50.1871 90.5409 53.1855 90.5797 56.1916C90.5952 57.147 90.8127 58.0869 91.5429 58.817C92.3119 59.5861 93.2207 59.7414 94.2228 59.4618C95.4656 59.1278 96.0093 58.1879 96.2346 57.0227C96.3744 56.3081 96.3977 55.5779 96.3977 54.8478C96.3899 52.1524 96.3899 49.4647 96.3977 46.7693C96.3977 46.4664 96.3589 46.2644 96.0016 46.2023C95.7375 46.1557 95.4967 46.0003 95.2403 45.9071C95.1238 45.8683 95.0617 45.7984 95.0772 45.6819C95.1005 45.542 95.217 45.5964 95.2947 45.5964C96.1647 45.5887 97.0269 45.5887 97.8969 45.5964C97.9746 45.5964 98.0911 45.542 98.0988 45.6896C98.1066 45.8139 98.0367 45.8605 97.9279 45.9071C97.6794 45.9926 97.4541 46.1557 97.1978 46.1945C96.8249 46.2567 96.7706 46.4431 96.7706 46.7771C96.7861 49.9852 96.8016 53.201 96.7628 56.4091C96.755 57.4422 96.4365 58.4209 95.6598 59.1744C95.217 59.6016 94.6733 59.8579 94.0596 59.9201C92.444 60.091 90.8904 59.9822 89.733 58.6306C89.1737 57.9704 88.8708 57.1858 88.8553 56.3236C88.8475 54.7002 88.863 53.069 88.863 51.4377Z" fill="black"/>
<path d="M23.0706 52.6728C23.0706 50.6532 23.0706 48.6336 23.0706 46.614C23.0706 46.0702 23.0706 46.0625 22.5113 45.9925C22.3327 45.9692 22.1773 45.8993 22.0064 45.845C21.9054 45.8139 21.8977 45.7517 21.9132 45.6741C21.9287 45.5809 22.0064 45.6042 22.0608 45.6042C23.3269 45.6042 24.6008 45.6042 25.867 45.6042C25.9446 45.6042 26.0223 45.5964 26.0223 45.7207C26.0223 45.8294 25.9602 45.8916 25.867 45.9149C25.6262 45.9692 25.3776 46.0314 25.1368 46.0702C24.9271 46.1091 24.8572 46.21 24.8572 46.4275C24.8649 50.6221 24.8649 54.8167 24.8572 59.0034C24.8572 59.2287 24.9193 59.2831 25.1368 59.2753C26.1466 59.2675 27.1564 59.2675 28.1662 59.2753C28.3837 59.2753 28.4303 59.2132 28.4458 58.9957C28.5158 58.1024 28.8964 57.3412 29.4556 56.6576C29.5411 56.5489 29.6498 56.409 29.8052 56.4789C29.9528 56.5411 29.8363 56.6964 29.8285 56.7819C29.7431 57.4111 29.7586 58.0403 29.7664 58.6694C29.7664 58.9102 29.8052 59.151 29.844 59.3841C29.8751 59.6093 29.7819 59.6637 29.5644 59.6559C28.4769 59.6482 27.3894 59.6482 26.302 59.6482C24.9426 59.6482 23.5833 59.6482 22.2239 59.6404C22.1229 59.6404 21.9365 59.7491 21.921 59.5316C21.9054 59.3297 22.0841 59.4384 22.1773 59.4074C22.2161 59.3918 22.255 59.3918 22.2861 59.3763C23.0784 59.1433 23.0784 59.1433 23.0784 58.3121C23.0706 56.4556 23.0706 54.5603 23.0706 52.6728Z" fill="black"/>
<path d="M23.0706 52.6728C23.0706 50.6532 23.0706 48.6336 23.0706 46.614C23.0706 46.0702 23.0706 46.0625 22.5113 45.9925C22.3327 45.9692 22.1773 45.8993 22.0064 45.845C21.9054 45.8139 21.8977 45.7517 21.9132 45.6741C21.9287 45.5809 22.0064 45.6042 22.0608 45.6042C23.3269 45.6042 24.6008 45.6042 25.867 45.6042C25.9446 45.6042 26.0223 45.5964 26.0223 45.7207C26.0223 45.8294 25.9602 45.8916 25.867 45.9149C25.6262 45.9692 25.3776 46.0314 25.1368 46.0702C24.9271 46.1091 24.8572 46.21 24.8572 46.4275C24.8649 50.6221 24.8649 54.8167 24.8572 59.0034C24.8572 59.2287 24.9193 59.2831 25.1368 59.2753C26.1466 59.2675 27.1564 59.2675 28.1662 59.2753C28.3837 59.2753 28.4303 59.2132 28.4458 58.9957C28.5158 58.1024 28.8964 57.3412 29.4556 56.6576C29.5411 56.5489 29.6498 56.409 29.8052 56.4789C29.9528 56.5411 29.8363 56.6964 29.8285 56.7819C29.7431 57.4111 29.7586 58.0403 29.7664 58.6694C29.7664 58.9102 29.8052 59.151 29.844 59.3841C29.8751 59.6093 29.7819 59.6637 29.5644 59.6559C28.4769 59.6482 27.3894 59.6482 26.302 59.6482C24.9426 59.6482 23.5833 59.6482 22.2239 59.6404C22.1229 59.6404 21.9365 59.7491 21.921 59.5316C21.9054 59.3297 22.0841 59.4384 22.1773 59.4074C22.2161 59.3918 22.255 59.3918 22.2861 59.3763C23.0784 59.1433 23.0784 59.1433 23.0784 58.3121C23.0706 56.4556 23.0706 54.5603 23.0706 52.6728Z" fill="black"/>
<path d="M117.169 46.28C117.518 45.8373 117.79 45.3168 118.458 45.4567C118.458 46.0082 118.458 46.5519 118.458 47.0956C118.458 47.6938 118.466 48.2841 118.45 48.8822C118.45 48.9754 118.536 49.1308 118.357 49.1619C118.186 49.1929 118.14 49.0376 118.108 48.9288C117.961 48.4628 117.821 47.9967 117.58 47.5695C117.153 46.8005 116.671 46.0858 115.763 45.8062C115.032 45.5809 114.077 45.9383 113.626 46.5597C112.935 47.5151 112.64 48.5948 112.469 49.7289C112.368 50.428 112.384 51.1348 112.298 51.8262C112.197 52.6418 112.314 53.4341 112.337 54.2342C112.376 55.5547 112.578 56.8674 113.199 58.0559C113.681 58.9647 114.427 59.5783 115.514 59.5628C116.392 59.5473 117.06 59.0657 117.596 58.4132C118.147 57.7529 118.528 56.9995 118.637 56.1217C118.644 56.0285 118.637 55.7799 118.893 55.8421C119.103 55.8887 119.009 56.0596 118.994 56.1528C118.823 57.2014 118.458 58.1646 117.72 58.9414C116.586 60.1221 114.994 60.2619 113.603 59.6172C112.166 58.9492 111.366 57.6986 110.861 56.2538C110.574 55.4226 110.473 54.5449 110.364 53.6671C110.263 52.8515 110.302 52.0514 110.395 51.2591C110.582 49.5968 111.017 48.02 112.166 46.715C112.966 45.8062 113.937 45.2935 115.149 45.2858C115.965 45.2935 116.594 45.7285 117.169 46.28Z" fill="black"/>
<path d="M117.169 46.28C117.518 45.8373 117.79 45.3168 118.458 45.4567C118.458 46.0082 118.458 46.5519 118.458 47.0956C118.458 47.6938 118.466 48.2841 118.45 48.8822C118.45 48.9754 118.536 49.1308 118.357 49.1619C118.186 49.1929 118.14 49.0376 118.108 48.9288C117.961 48.4628 117.821 47.9967 117.58 47.5695C117.153 46.8005 116.671 46.0858 115.763 45.8062C115.032 45.5809 114.077 45.9383 113.626 46.5597C112.935 47.5151 112.64 48.5948 112.469 49.7289C112.368 50.428 112.384 51.1348 112.298 51.8262C112.197 52.6418 112.314 53.4341 112.337 54.2342C112.376 55.5547 112.578 56.8674 113.199 58.0559C113.681 58.9647 114.427 59.5783 115.514 59.5628C116.392 59.5473 117.06 59.0657 117.596 58.4132C118.147 57.7529 118.528 56.9995 118.637 56.1217C118.644 56.0285 118.637 55.7799 118.893 55.8421C119.103 55.8887 119.009 56.0596 118.994 56.1528C118.823 57.2014 118.458 58.1646 117.72 58.9414C116.586 60.1221 114.994 60.2619 113.603 59.6172C112.166 58.9492 111.366 57.6986 110.861 56.2538C110.574 55.4226 110.473 54.5449 110.364 53.6671C110.263 52.8515 110.302 52.0514 110.395 51.2591C110.582 49.5968 111.017 48.02 112.166 46.715C112.966 45.8062 113.937 45.2935 115.149 45.2858C115.965 45.2935 116.594 45.7285 117.169 46.28Z" fill="black"/>
<path d="M84.8316 30.9621C84.6996 30.8378 84.6063 30.7912 84.5131 30.9854C84.3733 31.2805 84.1325 31.467 83.8839 31.6767C83.2703 32.1894 82.5479 31.8709 82.3304 31.2184C81.942 30.0765 82.0042 28.8803 81.8022 27.7152C81.6702 26.9384 81.6469 26.1461 81.5536 25.3693C81.4294 24.2974 81.2973 23.2332 81.1653 22.169C81.0798 21.4855 80.9322 20.8174 80.6448 20.1805C80.2797 19.3727 79.7127 18.7512 79.0447 18.192C78.2524 17.5239 77.3902 16.9957 76.4114 16.6307C75.5181 16.2966 74.6015 16.0791 73.6694 15.8927C74.3452 15.7762 75.0132 15.6752 75.6657 15.4966C76.7687 15.2014 77.8174 14.8052 78.8116 14.2382C80.2953 13.3915 81.3361 12.1875 81.9343 10.6029C82.3382 9.53097 82.3926 8.42019 82.2605 7.27834C82.0896 5.73256 81.4604 4.41206 80.4273 3.28574C79.6272 2.40799 78.6252 1.81764 77.5533 1.31274C76.1706 0.675791 74.7181 0.349547 73.2189 0.147587C72.8693 0.100981 72.4887 0.194193 72.1547 0.00776818C68.7602 0.00776818 65.3735 0.00776818 61.979 0.00776818C61.8936 0.427224 62.0722 0.57481 62.4917 0.64472C63.2063 0.769003 63.8899 1.00203 64.5967 1.16516C64.7599 1.20399 64.7754 1.25837 64.7676 1.38265C64.7599 1.44479 64.7676 1.5147 64.7676 1.57684C64.7676 5.89569 64.7599 10.2145 64.7754 14.5411C64.7754 14.8752 64.69 14.9373 64.3715 14.9295C61.4586 14.914 58.5535 14.914 55.6406 14.9295C55.3532 14.9295 55.2833 14.8674 55.2833 14.5722C55.291 10.2223 55.2988 5.88015 55.2833 1.53024C55.2833 1.20399 55.4153 1.14185 55.6794 1.08748C56.4251 0.924357 57.1631 0.753468 57.8932 0.535972C58.1573 0.458295 57.9476 0.178657 58.0097 0C54.825 0 51.6402 0 48.4555 0C48.4011 0.349547 48.471 0.567043 48.8982 0.636953C49.5662 0.7457 50.211 0.94766 50.8712 1.08748C51.1819 1.14962 51.2674 1.28944 51.2596 1.61568C51.2674 11.4185 51.2674 21.2136 51.2674 31.0164C51.2674 31.0941 51.2674 31.1718 51.2674 31.2495C51.2751 31.4281 51.2208 31.5136 51.0188 31.5524C50.242 31.7233 49.473 31.9563 48.6885 32.1272C48.3933 32.1894 48.4788 32.3836 48.4632 32.5544C48.4477 32.7875 48.6263 32.7098 48.7351 32.7098C51.7412 32.7098 54.7395 32.7098 57.7456 32.7098C57.8466 32.7098 58.0253 32.7952 58.0253 32.5622C58.0175 32.3836 58.0874 32.1583 57.8233 32.1039C57.0776 31.9486 56.3474 31.7311 55.6017 31.5679C55.3532 31.5136 55.3066 31.4592 55.3066 31.2262C55.3143 26.2315 55.3143 21.2291 55.3066 16.2345C55.3066 15.9704 55.392 15.9238 55.6328 15.9238C58.569 15.9316 61.513 15.9316 64.4492 15.9238C64.7521 15.9238 64.7987 16.0092 64.7987 16.2889C64.7909 19.4969 64.7909 22.7128 64.7909 25.9208C64.7909 27.6686 64.7909 29.4163 64.7909 31.164C64.7909 31.3971 64.7599 31.5058 64.4725 31.5679C63.7112 31.7155 62.9733 31.9563 62.2198 32.1272C61.9402 32.1894 61.9946 32.368 61.9868 32.5467C61.9713 32.8108 62.1732 32.7098 62.2897 32.7098C65.3036 32.7176 68.3252 32.7098 71.3391 32.7176C71.5877 32.7176 71.6187 32.6399 71.6343 32.4146C71.6576 32.135 71.4556 32.135 71.308 32.0961C70.5701 31.902 69.8322 31.7078 69.0865 31.5524C68.8612 31.5058 68.8224 31.4126 68.8224 31.2262C68.8224 26.348 68.8224 21.4622 68.8224 16.584C68.8224 16.351 68.9001 16.3122 69.1098 16.3122C70.3293 16.3122 71.5333 16.3432 72.7373 16.5452C74.5083 16.8481 75.7123 17.8502 76.357 19.4969C76.9008 20.8796 76.9707 22.371 77.1416 23.8313C77.2115 24.4139 77.2426 25.0042 77.328 25.5713C77.4678 26.5578 77.53 27.5598 77.6931 28.5463C77.7941 29.1833 77.8174 29.828 77.9184 30.4649C78.1825 32.1583 79.7438 33.339 81.4138 33.3934C82.8508 33.4322 84.0315 32.8807 84.9171 31.7311C85.1812 31.3815 85.1656 31.2805 84.8316 30.9621ZM69.0243 15.3878C68.7136 15.3878 68.8301 15.1781 68.8301 15.0383C68.8224 12.7779 68.8224 10.5175 68.8224 8.2493C68.8224 6.0122 68.8224 3.76734 68.8146 1.53024C68.8146 1.29721 68.8379 1.18846 69.1098 1.13409C70.0807 0.939892 71.0362 1.0098 72.0071 1.08748C72.8305 1.14962 73.5995 1.38265 74.353 1.71666C75.3705 2.16719 76.1784 2.85075 76.7687 3.79841C77.5533 5.05678 77.8407 6.43943 77.8407 7.89975C77.8407 9.07268 77.7941 10.2223 77.3824 11.3486C76.66 13.3061 75.2696 14.5101 73.2966 15.0771C71.8906 15.481 70.4536 15.3723 69.0243 15.3878Z" fill="black"/>
<path d="M84.8316 30.9621C84.6996 30.8378 84.6063 30.7912 84.5131 30.9854C84.3733 31.2805 84.1325 31.467 83.8839 31.6767C83.2703 32.1894 82.5479 31.8709 82.3304 31.2184C81.942 30.0765 82.0042 28.8803 81.8022 27.7152C81.6702 26.9384 81.6469 26.1461 81.5536 25.3693C81.4294 24.2974 81.2973 23.2332 81.1653 22.169C81.0798 21.4855 80.9322 20.8174 80.6448 20.1805C80.2797 19.3727 79.7127 18.7512 79.0447 18.192C78.2524 17.5239 77.3902 16.9957 76.4114 16.6307C75.5181 16.2966 74.6015 16.0791 73.6694 15.8927C74.3452 15.7762 75.0132 15.6752 75.6657 15.4966C76.7687 15.2014 77.8174 14.8052 78.8116 14.2382C80.2953 13.3915 81.3361 12.1875 81.9343 10.6029C82.3382 9.53097 82.3926 8.42019 82.2605 7.27834C82.0896 5.73256 81.4604 4.41206 80.4273 3.28574C79.6272 2.40799 78.6252 1.81764 77.5533 1.31274C76.1706 0.675791 74.7181 0.349547 73.2189 0.147587C72.8693 0.100981 72.4887 0.194193 72.1547 0.00776818C68.7602 0.00776818 65.3735 0.00776818 61.979 0.00776818C61.8936 0.427224 62.0722 0.57481 62.4917 0.64472C63.2063 0.769003 63.8899 1.00203 64.5967 1.16516C64.7599 1.20399 64.7754 1.25837 64.7676 1.38265C64.7599 1.44479 64.7676 1.5147 64.7676 1.57684C64.7676 5.89569 64.7599 10.2145 64.7754 14.5411C64.7754 14.8752 64.69 14.9373 64.3715 14.9295C61.4586 14.914 58.5535 14.914 55.6406 14.9295C55.3532 14.9295 55.2833 14.8674 55.2833 14.5722C55.291 10.2223 55.2988 5.88015 55.2833 1.53024C55.2833 1.20399 55.4153 1.14185 55.6794 1.08748C56.4251 0.924357 57.1631 0.753468 57.8932 0.535972C58.1573 0.458295 57.9476 0.178657 58.0097 0C54.825 0 51.6402 0 48.4555 0C48.4011 0.349547 48.471 0.567043 48.8982 0.636953C49.5662 0.7457 50.211 0.94766 50.8712 1.08748C51.1819 1.14962 51.2674 1.28944 51.2596 1.61568C51.2674 11.4185 51.2674 21.2136 51.2674 31.0164C51.2674 31.0941 51.2674 31.1718 51.2674 31.2495C51.2751 31.4281 51.2208 31.5136 51.0188 31.5524C50.242 31.7233 49.473 31.9563 48.6885 32.1272C48.3933 32.1894 48.4788 32.3836 48.4632 32.5544C48.4477 32.7875 48.6263 32.7098 48.7351 32.7098C51.7412 32.7098 54.7395 32.7098 57.7456 32.7098C57.8466 32.7098 58.0253 32.7952 58.0253 32.5622C58.0175 32.3836 58.0874 32.1583 57.8233 32.1039C57.0776 31.9486 56.3474 31.7311 55.6017 31.5679C55.3532 31.5136 55.3066 31.4592 55.3066 31.2262C55.3143 26.2315 55.3143 21.2291 55.3066 16.2345C55.3066 15.9704 55.392 15.9238 55.6328 15.9238C58.569 15.9316 61.513 15.9316 64.4492 15.9238C64.7521 15.9238 64.7987 16.0092 64.7987 16.2889C64.7909 19.4969 64.7909 22.7128 64.7909 25.9208C64.7909 27.6686 64.7909 29.4163 64.7909 31.164C64.7909 31.3971 64.7599 31.5058 64.4725 31.5679C63.7112 31.7155 62.9733 31.9563 62.2198 32.1272C61.9402 32.1894 61.9946 32.368 61.9868 32.5467C61.9713 32.8108 62.1732 32.7098 62.2897 32.7098C65.3036 32.7176 68.3252 32.7098 71.3391 32.7176C71.5877 32.7176 71.6187 32.6399 71.6343 32.4146C71.6576 32.135 71.4556 32.135 71.308 32.0961C70.5701 31.902 69.8322 31.7078 69.0865 31.5524C68.8612 31.5058 68.8224 31.4126 68.8224 31.2262C68.8224 26.348 68.8224 21.4622 68.8224 16.584C68.8224 16.351 68.9001 16.3122 69.1098 16.3122C70.3293 16.3122 71.5333 16.3432 72.7373 16.5452C74.5083 16.8481 75.7123 17.8502 76.357 19.4969C76.9008 20.8796 76.9707 22.371 77.1416 23.8313C77.2115 24.4139 77.2426 25.0042 77.328 25.5713C77.4678 26.5578 77.53 27.5598 77.6931 28.5463C77.7941 29.1833 77.8174 29.828 77.9184 30.4649C78.1825 32.1583 79.7438 33.339 81.4138 33.3934C82.8508 33.4322 84.0315 32.8807 84.9171 31.7311C85.1812 31.3815 85.1656 31.2805 84.8316 30.9621ZM69.0243 15.3878C68.7136 15.3878 68.8301 15.1781 68.8301 15.0383C68.8224 12.7779 68.8224 10.5175 68.8224 8.2493C68.8224 6.0122 68.8224 3.76734 68.8146 1.53024C68.8146 1.29721 68.8379 1.18846 69.1098 1.13409C70.0807 0.939892 71.0362 1.0098 72.0071 1.08748C72.8305 1.14962 73.5995 1.38265 74.353 1.71666C75.3705 2.16719 76.1784 2.85075 76.7687 3.79841C77.5533 5.05678 77.8407 6.43943 77.8407 7.89975C77.8407 9.07268 77.7941 10.2223 77.3824 11.3486C76.66 13.3061 75.2696 14.5101 73.2966 15.0771C71.8906 15.481 70.4536 15.3723 69.0243 15.3878Z" fill="black"/>
<path d="M109.253 58.9646C109.121 58.8247 109.098 59.0034 109.028 59.0345C108.981 59.0578 108.95 59.1044 108.919 59.1432C108.795 59.283 108.655 59.4151 108.461 59.3452C108.259 59.2753 108.158 59.1277 108.119 58.8947C108.057 58.5063 108.003 58.1257 107.972 57.7295C107.886 56.844 107.777 55.9662 107.669 55.0885C107.607 54.6147 107.451 54.1641 107.125 53.799C106.457 53.0378 105.587 52.6494 104.608 52.4475C104.865 52.3931 105.121 52.3465 105.369 52.2843C106.177 52.0746 106.939 51.7561 107.474 51.1114C108.034 50.4279 108.306 49.6278 108.15 48.6957C108.003 47.8257 107.599 47.1266 106.9 46.6217C105.991 45.9614 104.927 45.674 103.831 45.6197C102.41 45.5575 100.981 45.6041 99.5592 45.6041C99.4815 45.6041 99.3728 45.5653 99.365 45.7129C99.3572 45.8527 99.4737 45.8527 99.5359 45.876C99.7611 45.9537 99.9942 46.0469 100.219 46.0546C100.577 46.0702 100.608 46.2566 100.608 46.5518C100.592 50.4201 100.592 54.2962 100.592 58.1645C100.592 58.4985 100.701 58.9335 100.538 59.1432C100.367 59.353 99.9243 59.353 99.598 59.4229C99.4893 59.4462 99.365 59.4617 99.365 59.5782C99.3728 59.7413 99.5281 59.6637 99.6136 59.6637C100.872 59.6714 102.123 59.6714 103.381 59.6637C103.435 59.6637 103.513 59.687 103.544 59.6015C103.521 59.4772 103.443 59.4539 103.327 59.4306C103.086 59.3763 102.845 59.2908 102.604 59.2364C102.457 59.1976 102.371 59.1665 102.371 58.9723C102.379 56.9527 102.379 54.9331 102.371 52.9135C102.371 52.7271 102.418 52.665 102.604 52.6727C103.024 52.7038 103.443 52.6883 103.87 52.7426C104.764 52.8514 105.447 53.4883 105.641 54.3428C105.905 55.5079 105.952 56.6964 106.115 57.8693C106.169 58.2655 106.154 58.6772 106.309 59.0578C106.527 59.5704 107.016 60.0365 107.847 59.9977C108.461 59.9666 108.935 59.7724 109.292 59.2597C109.393 59.1044 109.339 59.05 109.253 58.9646ZM102.651 52.2921C102.425 52.2999 102.371 52.23 102.379 52.0125C102.387 51.0415 102.387 50.0705 102.387 49.0996C102.387 48.1519 102.394 47.212 102.379 46.2644C102.379 46.0546 102.425 45.9692 102.651 45.9847C103.56 46.0313 104.453 46.1013 105.23 46.6761C105.719 47.0334 105.991 47.5305 106.092 48.0742C106.302 49.1773 106.325 50.288 105.571 51.259C105.206 51.7328 104.717 51.9969 104.165 52.1135C103.668 52.2222 103.156 52.2766 102.651 52.2921Z" fill="black"/>
<path d="M109.253 58.9646C109.121 58.8247 109.098 59.0034 109.028 59.0345C108.981 59.0578 108.95 59.1044 108.919 59.1432C108.795 59.283 108.655 59.4151 108.461 59.3452C108.259 59.2753 108.158 59.1277 108.119 58.8947C108.057 58.5063 108.003 58.1257 107.972 57.7295C107.886 56.844 107.777 55.9662 107.669 55.0885C107.607 54.6147 107.451 54.1641 107.125 53.799C106.457 53.0378 105.587 52.6494 104.608 52.4475C104.865 52.3931 105.121 52.3465 105.369 52.2843C106.177 52.0746 106.939 51.7561 107.474 51.1114C108.034 50.4279 108.306 49.6278 108.15 48.6957C108.003 47.8257 107.599 47.1266 106.9 46.6217C105.991 45.9614 104.927 45.674 103.831 45.6197C102.41 45.5575 100.981 45.6041 99.5592 45.6041C99.4815 45.6041 99.3728 45.5653 99.365 45.7129C99.3572 45.8527 99.4737 45.8527 99.5359 45.876C99.7611 45.9537 99.9942 46.0469 100.219 46.0546C100.577 46.0702 100.608 46.2566 100.608 46.5518C100.592 50.4201 100.592 54.2962 100.592 58.1645C100.592 58.4985 100.701 58.9335 100.538 59.1432C100.367 59.353 99.9243 59.353 99.598 59.4229C99.4893 59.4462 99.365 59.4617 99.365 59.5782C99.3728 59.7413 99.5281 59.6637 99.6136 59.6637C100.872 59.6714 102.123 59.6714 103.381 59.6637C103.435 59.6637 103.513 59.687 103.544 59.6015C103.521 59.4772 103.443 59.4539 103.327 59.4306C103.086 59.3763 102.845 59.2908 102.604 59.2364C102.457 59.1976 102.371 59.1665 102.371 58.9723C102.379 56.9527 102.379 54.9331 102.371 52.9135C102.371 52.7271 102.418 52.665 102.604 52.6727C103.024 52.7038 103.443 52.6883 103.87 52.7426C104.764 52.8514 105.447 53.4883 105.641 54.3428C105.905 55.5079 105.952 56.6964 106.115 57.8693C106.169 58.2655 106.154 58.6772 106.309 59.0578C106.527 59.5704 107.016 60.0365 107.847 59.9977C108.461 59.9666 108.935 59.7724 109.292 59.2597C109.393 59.1044 109.339 59.05 109.253 58.9646ZM102.651 52.2921C102.425 52.2999 102.371 52.23 102.379 52.0125C102.387 51.0415 102.387 50.0705 102.387 49.0996C102.387 48.1519 102.394 47.212 102.379 46.2644C102.379 46.0546 102.425 45.9692 102.651 45.9847C103.56 46.0313 104.453 46.1013 105.23 46.6761C105.719 47.0334 105.991 47.5305 106.092 48.0742C106.302 49.1773 106.325 50.288 105.571 51.259C105.206 51.7328 104.717 51.9969 104.165 52.1135C103.668 52.2222 103.156 52.2766 102.651 52.2921Z" fill="black"/>
<path d="M56.1765 58.9335C55.959 58.7781 56.0057 59.0422 55.928 59.0966C55.7649 59.2131 55.6483 59.4306 55.4075 59.3452C55.2056 59.2753 55.1124 59.1044 55.0425 58.9024C54.9803 58.7238 55.0347 58.5451 54.9959 58.3742C54.7939 57.3256 54.7551 56.2614 54.6075 55.2128C54.5298 54.6147 54.3511 54.0632 53.9006 53.6359C53.2326 53.0067 52.448 52.6261 51.4538 52.4941C51.9509 52.3387 52.3781 52.2999 52.7665 52.1368C53.52 51.8105 54.2424 51.4765 54.6929 50.7075C55.0192 50.1405 55.1046 49.5579 55.0813 48.9287C55.0502 47.95 54.5997 47.1887 53.8307 46.6217C52.8986 45.9381 51.8111 45.674 50.6848 45.6197C49.2866 45.5575 47.8884 45.6041 46.4902 45.6041C46.4125 45.6041 46.3038 45.5653 46.296 45.7129C46.2883 45.8527 46.4048 45.8527 46.4747 45.876C46.6999 45.9537 46.933 46.0469 47.1582 46.0546C47.5156 46.0702 47.5466 46.2566 47.5466 46.5518C47.5389 50.4201 47.5389 54.2884 47.5389 58.1645C47.5389 58.4985 47.6476 58.9335 47.4845 59.1432C47.3214 59.353 46.8708 59.3607 46.5446 59.4306C46.4358 59.4539 46.3038 59.4695 46.3116 59.5782C46.3271 59.7491 46.498 59.6637 46.5912 59.6637C47.8185 59.6714 49.0536 59.6714 50.2809 59.6637C50.3508 59.6637 50.4362 59.7025 50.4828 59.6093C50.475 59.5005 50.4129 59.4539 50.3119 59.4306C50.0245 59.3607 49.7371 59.252 49.4419 59.2054C49.2633 59.1821 49.24 59.1199 49.24 58.9723C49.24 56.9527 49.2478 54.9331 49.24 52.9135C49.24 52.696 49.3177 52.6494 49.5041 52.665C49.9391 52.696 50.3663 52.6727 50.8013 52.7349C51.6713 52.8592 52.215 53.3097 52.5024 54.1175C52.65 54.5214 52.6733 54.9487 52.7432 55.3681C52.9296 56.3779 52.9918 57.4033 53.1083 58.4208C53.2559 59.7413 54.1647 60.1763 55.3066 59.92C55.6639 59.8423 55.9823 59.6559 56.1688 59.3063C56.2465 59.1743 56.3474 59.0655 56.1765 58.9335ZM50.6615 52.1911C50.2886 52.2455 49.908 52.3154 49.5196 52.2921C49.3099 52.2766 49.24 52.2377 49.24 52.0125C49.2555 51.057 49.2478 50.1016 49.2478 49.1462C49.2478 48.2141 49.2555 47.2819 49.24 46.3498C49.24 46.0857 49.3099 45.9692 49.5895 45.9847C50.3197 46.0313 51.0421 46.0546 51.7179 46.3964C52.4014 46.746 52.852 47.313 53.0151 48.0276C53.2637 49.1307 53.2481 50.2337 52.5335 51.2202C52.0597 51.8727 51.3839 52.0979 50.6615 52.1911Z" fill="black"/>
<path d="M56.1765 58.9335C55.959 58.7781 56.0057 59.0422 55.928 59.0966C55.7649 59.2131 55.6483 59.4306 55.4075 59.3452C55.2056 59.2753 55.1124 59.1044 55.0425 58.9024C54.9803 58.7238 55.0347 58.5451 54.9959 58.3742C54.7939 57.3256 54.7551 56.2614 54.6075 55.2128C54.5298 54.6147 54.3511 54.0632 53.9006 53.6359C53.2326 53.0067 52.448 52.6261 51.4538 52.4941C51.9509 52.3387 52.3781 52.2999 52.7665 52.1368C53.52 51.8105 54.2424 51.4765 54.6929 50.7075C55.0192 50.1405 55.1046 49.5579 55.0813 48.9287C55.0502 47.95 54.5997 47.1887 53.8307 46.6217C52.8986 45.9381 51.8111 45.674 50.6848 45.6197C49.2866 45.5575 47.8884 45.6041 46.4902 45.6041C46.4125 45.6041 46.3038 45.5653 46.296 45.7129C46.2883 45.8527 46.4048 45.8527 46.4747 45.876C46.6999 45.9537 46.933 46.0469 47.1582 46.0546C47.5156 46.0702 47.5466 46.2566 47.5466 46.5518C47.5389 50.4201 47.5389 54.2884 47.5389 58.1645C47.5389 58.4985 47.6476 58.9335 47.4845 59.1432C47.3214 59.353 46.8708 59.3607 46.5446 59.4306C46.4358 59.4539 46.3038 59.4695 46.3116 59.5782C46.3271 59.7491 46.498 59.6637 46.5912 59.6637C47.8185 59.6714 49.0536 59.6714 50.2809 59.6637C50.3508 59.6637 50.4362 59.7025 50.4828 59.6093C50.475 59.5005 50.4129 59.4539 50.3119 59.4306C50.0245 59.3607 49.7371 59.252 49.4419 59.2054C49.2633 59.1821 49.24 59.1199 49.24 58.9723C49.24 56.9527 49.2478 54.9331 49.24 52.9135C49.24 52.696 49.3177 52.6494 49.5041 52.665C49.9391 52.696 50.3663 52.6727 50.8013 52.7349C51.6713 52.8592 52.215 53.3097 52.5024 54.1175C52.65 54.5214 52.6733 54.9487 52.7432 55.3681C52.9296 56.3779 52.9918 57.4033 53.1083 58.4208C53.2559 59.7413 54.1647 60.1763 55.3066 59.92C55.6639 59.8423 55.9823 59.6559 56.1688 59.3063C56.2465 59.1743 56.3474 59.0655 56.1765 58.9335ZM50.6615 52.1911C50.2886 52.2455 49.908 52.3154 49.5196 52.2921C49.3099 52.2766 49.24 52.2377 49.24 52.0125C49.2555 51.057 49.2478 50.1016 49.2478 49.1462C49.2478 48.2141 49.2555 47.2819 49.24 46.3498C49.24 46.0857 49.3099 45.9692 49.5895 45.9847C50.3197 46.0313 51.0421 46.0546 51.7179 46.3964C52.4014 46.746 52.852 47.313 53.0151 48.0276C53.2637 49.1307 53.2481 50.2337 52.5335 51.2202C52.0597 51.8727 51.3839 52.0979 50.6615 52.1911Z" fill="black"/>
<path d="M86.2143 52.7428C86.2376 51.7873 86.191 50.9329 86.0045 50.0784C85.6783 48.5948 85.0957 47.2588 83.9383 46.2334C83.2936 45.6664 82.5168 45.3246 81.6546 45.3013C80.2331 45.2702 79.1456 45.946 78.3145 47.049C77.2037 48.5327 76.8697 50.2804 76.761 52.0747C76.6988 53.0457 76.792 54.0089 76.9785 54.9643C77.2659 56.4635 77.8096 57.8228 78.9204 58.9103C80.404 60.3629 82.6256 60.3396 84.1247 58.9258C84.9326 58.1646 85.4297 57.2169 85.7637 56.1761C86.121 55.0342 86.3075 53.8691 86.2143 52.7428ZM84.1092 55.7566C83.9383 56.8363 83.7208 57.9316 83.0295 58.8326C82.1673 59.9589 80.8312 59.9745 79.9302 58.7161C79.3321 57.8772 79.0835 56.9062 78.9359 55.9197C78.7417 54.6691 78.6407 53.403 78.6951 52.1369C78.765 50.5367 78.8505 48.9288 79.4641 47.4219C79.7282 46.7772 80.0778 46.1946 80.7303 45.845C81.3361 45.5188 82.1906 45.6741 82.6877 46.1402C83.3713 46.7849 83.6664 47.6161 83.8839 48.486C84.2257 49.8532 84.3267 51.2436 84.2646 52.7039C84.3422 53.6982 84.2723 54.739 84.1092 55.7566Z" fill="black"/>
<path d="M86.2143 52.7428C86.2376 51.7873 86.191 50.9329 86.0045 50.0784C85.6783 48.5948 85.0957 47.2588 83.9383 46.2334C83.2936 45.6664 82.5168 45.3246 81.6546 45.3013C80.2331 45.2702 79.1456 45.946 78.3145 47.049C77.2037 48.5327 76.8697 50.2804 76.761 52.0747C76.6988 53.0457 76.792 54.0089 76.9785 54.9643C77.2659 56.4635 77.8096 57.8228 78.9204 58.9103C80.404 60.3629 82.6256 60.3396 84.1247 58.9258C84.9326 58.1646 85.4297 57.2169 85.7637 56.1761C86.121 55.0342 86.3075 53.8691 86.2143 52.7428ZM84.1092 55.7566C83.9383 56.8363 83.7208 57.9316 83.0295 58.8326C82.1673 59.9589 80.8312 59.9745 79.9302 58.7161C79.3321 57.8772 79.0835 56.9062 78.9359 55.9197C78.7417 54.6691 78.6407 53.403 78.6951 52.1369C78.765 50.5367 78.8505 48.9288 79.4641 47.4219C79.7282 46.7772 80.0778 46.1946 80.7303 45.845C81.3361 45.5188 82.1906 45.6741 82.6877 46.1402C83.3713 46.7849 83.6664 47.6161 83.8839 48.486C84.2257 49.8532 84.3267 51.2436 84.2646 52.7039C84.3422 53.6982 84.2723 54.739 84.1092 55.7566Z" fill="black"/>
<path d="M40.1673 49.3793C39.9731 48.2297 39.4449 47.2976 38.4973 46.614C37.6195 45.977 36.6097 45.6663 35.5533 45.6197C34.225 45.5654 32.889 45.6042 31.5529 45.6042C31.5296 45.6042 31.4986 45.6042 31.4753 45.6042C31.3898 45.612 31.3277 45.6663 31.3121 45.744C31.2888 45.8605 31.4131 45.8605 31.4597 45.8761C31.7238 45.9537 31.9879 46.0159 32.2598 46.0703C32.4618 46.1091 32.5627 46.1945 32.5472 46.4276C32.5239 46.7616 32.5394 47.1034 32.5394 47.4374C32.5394 51.2436 32.5317 55.042 32.5472 58.8481C32.5472 59.12 32.454 59.2287 32.221 59.2831C31.9879 59.3297 31.7627 59.3996 31.5219 59.4385C31.4131 59.454 31.2966 59.4773 31.3121 59.6016C31.3277 59.7337 31.4597 59.6637 31.5374 59.6715C31.7704 59.6793 32.0035 59.6715 32.2365 59.6715C33.223 59.6715 34.2017 59.6715 35.1882 59.6637C35.2892 59.6637 35.4834 59.7725 35.4912 59.555C35.4989 59.353 35.3203 59.4695 35.2271 59.4385C34.9863 59.3608 34.7532 59.2443 34.5124 59.2288C34.2483 59.2132 34.2483 59.0889 34.2483 58.887C34.2561 58.25 34.2483 57.6208 34.2483 56.9839C34.2483 56.3081 34.2561 55.6401 34.2406 54.9643C34.2328 54.739 34.3027 54.6846 34.5202 54.6924C35.1805 54.7157 35.8407 54.7002 36.501 54.5448C37.9535 54.203 39.1498 53.504 39.81 52.1135C40.2217 51.2513 40.3305 50.3347 40.1673 49.3793ZM38.2875 50.4745C38.2021 51.3445 38.1477 52.23 37.6273 52.9913C37.0836 53.7914 36.3145 54.172 35.3669 54.2186C35.0096 54.2341 34.5357 54.3429 34.3182 54.1642C34.093 53.9778 34.2561 53.4884 34.2561 53.1311C34.2483 52.1368 34.2561 51.1426 34.2561 50.1405C34.2561 48.8977 34.2716 47.6549 34.2483 46.412C34.2406 46.0625 34.3571 45.9537 34.6911 45.9848C35.6931 46.0703 36.6719 46.1712 37.4098 46.9946C37.7982 47.4296 38.0312 47.9423 38.1244 48.4938C38.2332 49.154 38.3575 49.8143 38.2875 50.4745Z" fill="black"/>
<path d="M40.1673 49.3793C39.9731 48.2297 39.4449 47.2976 38.4973 46.614C37.6195 45.977 36.6097 45.6663 35.5533 45.6197C34.225 45.5654 32.889 45.6042 31.5529 45.6042C31.5296 45.6042 31.4986 45.6042 31.4753 45.6042C31.3898 45.612 31.3277 45.6663 31.3121 45.744C31.2888 45.8605 31.4131 45.8605 31.4597 45.8761C31.7238 45.9537 31.9879 46.0159 32.2598 46.0703C32.4618 46.1091 32.5627 46.1945 32.5472 46.4276C32.5239 46.7616 32.5394 47.1034 32.5394 47.4374C32.5394 51.2436 32.5317 55.042 32.5472 58.8481C32.5472 59.12 32.454 59.2287 32.221 59.2831C31.9879 59.3297 31.7627 59.3996 31.5219 59.4385C31.4131 59.454 31.2966 59.4773 31.3121 59.6016C31.3277 59.7337 31.4597 59.6637 31.5374 59.6715C31.7704 59.6793 32.0035 59.6715 32.2365 59.6715C33.223 59.6715 34.2017 59.6715 35.1882 59.6637C35.2892 59.6637 35.4834 59.7725 35.4912 59.555C35.4989 59.353 35.3203 59.4695 35.2271 59.4385C34.9863 59.3608 34.7532 59.2443 34.5124 59.2288C34.2483 59.2132 34.2483 59.0889 34.2483 58.887C34.2561 58.25 34.2483 57.6208 34.2483 56.9839C34.2483 56.3081 34.2561 55.6401 34.2406 54.9643C34.2328 54.739 34.3027 54.6846 34.5202 54.6924C35.1805 54.7157 35.8407 54.7002 36.501 54.5448C37.9535 54.203 39.1498 53.504 39.81 52.1135C40.2217 51.2513 40.3305 50.3347 40.1673 49.3793ZM38.2875 50.4745C38.2021 51.3445 38.1477 52.23 37.6273 52.9913C37.0836 53.7914 36.3145 54.172 35.3669 54.2186C35.0096 54.2341 34.5357 54.3429 34.3182 54.1642C34.093 53.9778 34.2561 53.4884 34.2561 53.1311C34.2483 52.1368 34.2561 51.1426 34.2561 50.1405C34.2561 48.8977 34.2716 47.6549 34.2483 46.412C34.2406 46.0625 34.3571 45.9537 34.6911 45.9848C35.6931 46.0703 36.6719 46.1712 37.4098 46.9946C37.7982 47.4296 38.0312 47.9423 38.1244 48.4938C38.2332 49.154 38.3575 49.8143 38.2875 50.4745Z" fill="black"/>
</svg>
