<svg width="24" height="24" viewBox="0 0 24 24" fill="none" xmlns="http://www.w3.org/2000/svg">
<path d="M23.8475 11.5332C23.6331 11.2399 18.5245 4.35162 11.9999 4.35162C5.47529 4.35162 0.36647 11.2399 0.152297 11.5329C-0.0507657 11.8111 -0.0507657 12.1885 0.152297 12.4668C0.36647 12.7601 5.47529 19.6483 11.9999 19.6483C18.5245 19.6483 23.6331 12.76 23.8475 12.467C24.0508 12.1888 24.0508 11.8111 23.8475 11.5332ZM11.9999 18.0659C7.19383 18.0659 3.03127 13.494 1.79907 11.9994C3.02968 10.5035 7.18351 5.93403 11.9999 5.93403C16.8057 5.93403 20.968 10.5051 22.2007 12.0005C20.9701 13.4964 16.8163 18.0659 11.9999 18.0659Z" fill="black" fill-opacity="0.5"/>
<path d="M12 7.25278C9.38236 7.25278 7.25269 9.38245 7.25269 12.0001C7.25269 14.6177 9.38236 16.7473 12 16.7473C14.6176 16.7473 16.7472 14.6177 16.7472 12.0001C16.7472 9.38245 14.6176 7.25278 12 7.25278ZM12 15.1649C10.2548 15.1649 8.83514 13.7452 8.83514 12.0001C8.83514 10.2549 10.2548 8.83523 12 8.83523C13.7451 8.83523 15.1648 10.2549 15.1648 12.0001C15.1648 13.7452 13.7451 15.1649 12 15.1649Z" fill="black" fill-opacity="0.5"/>
</svg>
